<?xml version="1.0" encoding="utf-8"?>
<svg viewBox="-278.237 -89.233 620.883 526.88" xmlns="http://www.w3.org/2000/svg">
  <g transform="matrix(1.33, 0, 0, 1.33, -88.362961, -28.24692)">
    <path d="M112,31v42l0,55v1" stroke-width="2" stroke-linecap="round" style="stroke: rgb(255, 255, 255);"/>
  </g>
  <g transform="matrix(1.33, 0, 0, 1.33, -141.562912, 50.653458)">
    <path d="M152,31v34q0,15 -15,15h-74q-15,0 -15,15v34" stroke-width="2" stroke-linecap="round" style="stroke: rgb(255, 255, 255); fill-opacity: 0;"/>
  </g>
  <g transform="matrix(1.33, 0, 0, 1.33, -251.952927, 212.553085)">
    <path d="M131,31v34q0,15 -15,15h-51q-15,0 -15,15v34" stroke-width="2" stroke-linecap="round" style="stroke: rgb(255, 255, 255); fill-opacity: 0;"/>
  </g>
  <g transform="matrix(1.33, 0, 0, 1.33, -141.562912, 212.553085)">
    <path d="M48,31v34q0,15 15,15h30q15,0 15,15v34" stroke-width="2" stroke-linecap="round" style="stroke: rgb(255, 255, 255); fill-opacity: 0;"/>
  </g>
  <g transform="matrix(1.33, 0, 0, 1.33, -3.242962, 50.653458)">
    <path d="M48,31v34q0,15 15,15h77q15,0 15,15v34" stroke-width="2" stroke-linecap="round" style="stroke: rgb(255, 255, 255); fill-opacity: 0;"/>
  </g>
  <g transform="matrix(1.33, 0, 0, 1.33, 123.107063, 223.553085)">
    <path d="M60,31v42l0,55v1" stroke-width="2" stroke-linecap="round" style="stroke: rgb(255, 255, 255); fill-opacity: 0;"/>
  </g>
  <g transform="matrix(1.33, 0, 0, 1.33, -88.362961, -28.24692)">
    <rect x="0" y="0" width="224" height="30" border="1" rx="2" ry="2" style="fill: rgb(255, 255, 255); stroke: rgb(0, 0, 0); stroke-width: 0px; stroke-opacity: 0;"/>
    <g transform="translate (6 6) scale(0.005859375)" style="fill:#000000;">
      <g transform="translate(4360.166666666668 2048) scale (1 -1)">
        <path d="M805 1225Q630 1225 534 1093.5Q438 962 438 727Q438 238 805 238Q959 238 1178 315L1178 55Q998 -20 776 -20Q457 -20 288 173.5Q119 367 119 729Q119 957 202 1128.5Q285 1300 440.5 1391.5Q596 1483 805 1483Q1018 1483 1233 1380L1133 1128Q1051 1167 968 1196Q885 1225 805 1225Z" style="stroke-width: 0px; stroke-opacity: 0;"/>
      </g>
      <g transform="translate(5665.166666666668 2048) scale (1 -1)">
        <path d="M403 561Q403 395 457.5 310Q512 225 635 225Q757 225 810.5 309.5Q864 394 864 561Q864 727 810 810Q756 893 633 893Q511 893 457 810.5Q403 728 403 561ZM1176 561Q1176 288 1032 134Q888 -20 631 -20Q470 -20 347 50.5Q224 121 158 253Q92 385 92 561Q92 835 235 987Q378 1139 637 1139Q798 1139 921 1069Q1044 999 1110 868Q1176 737 1176 561Z" style="stroke-width: 0px; stroke-opacity: 0;"/>
      </g>
      <g transform="translate(6933.166666666668 2048) scale (1 -1)">
        <path d="M1192 0L887 0L887 653Q887 774 844 834.5Q801 895 707 895Q579 895 522 809.5Q465 724 465 526L465 0L160 0L160 1118L393 1118L434 975L451 975Q502 1056 591.5 1097.5Q681 1139 795 1139Q990 1139 1091 1033.5Q1192 928 1192 729Z" style="stroke-width: 0px; stroke-opacity: 0;"/>
      </g>
      <g transform="translate(8279.166666666668 2048) scale (1 -1)">
        <path d="M1192 0L887 0L887 653Q887 774 844 834.5Q801 895 707 895Q579 895 522 809.5Q465 724 465 526L465 0L160 0L160 1118L393 1118L434 975L451 975Q502 1056 591.5 1097.5Q681 1139 795 1139Q990 1139 1091 1033.5Q1192 928 1192 729Z" style="stroke-width: 0px; stroke-opacity: 0;"/>
      </g>
      <g transform="translate(9625.166666666668 2048) scale (1 -1)">
        <path d="M623 922Q526 922 471 860.5Q416 799 408 686L836 686Q834 799 777 860.5Q720 922 623 922ZM666 -20Q396 -20 244 129Q92 278 92 551Q92 832 232.5 985.5Q373 1139 621 1139Q858 1139 990 1004Q1122 869 1122 631L1122 483L401 483Q406 353 478 280Q550 207 680 207Q781 207 871 228Q961 249 1059 295L1059 59Q979 19 888 -0.5Q797 -20 666 -20Z" style="stroke-width: 0px; stroke-opacity: 0;"/>
      </g>
      <g transform="translate(10835.166666666668 2048) scale (1 -1)">
        <path d="M614 -20Q92 -20 92 553Q92 838 234 988.5Q376 1139 641 1139Q835 1139 989 1063L899 827Q827 856 765 874.5Q703 893 641 893Q403 893 403 555Q403 227 641 227Q729 227 804 250.5Q879 274 954 324L954 63Q880 16 804.5 -2Q729 -20 614 -20Z" style="stroke-width: 0px; stroke-opacity: 0;"/>
      </g>
      <g transform="translate(11888.166666666668 2048) scale (1 -1)">
        <path d="M631 223Q711 223 823 258L823 31Q709 -20 543 -20Q360 -20 276.5 72.5Q193 165 193 350L193 889L47 889L47 1018L215 1120L303 1356L498 1356L498 1118L811 1118L811 889L498 889L498 350Q498 285 534.5 254Q571 223 631 223Z" style="stroke-width: 0px; stroke-opacity: 0;"/>
      </g>
      <g transform="translate(13309.166666666668 2048) scale (1 -1)">
        <path d="M1047 406Q1047 208 904.5 94Q762 -20 508 -20Q274 -20 94 68L94 356Q242 290 344.5 263Q447 236 532 236Q634 236 688.5 275Q743 314 743 391Q743 434 719 467.5Q695 501 648.5 532Q602 563 459 631Q325 694 258 752Q191 810 151 887Q111 964 111 1067Q111 1261 242.5 1372Q374 1483 606 1483Q720 1483 823.5 1456Q927 1429 1040 1380L940 1139Q823 1187 746.5 1206Q670 1225 596 1225Q508 1225 461 1184Q414 1143 414 1077Q414 1036 433 1005.5Q452 975 493.5 946.5Q535 918 690 844Q895 746 971 647.5Q1047 549 1047 406Z" style="stroke-width: 0px; stroke-opacity: 0;"/>
      </g>
      <g transform="translate(14437.166666666668 2048) scale (1 -1)">
        <path d="M774 -20Q577 -20 465 123L449 123Q465 -17 465 -39L465 -492L160 -492L160 1118L408 1118L451 973L465 973Q572 1139 782 1139Q980 1139 1092 986Q1204 833 1204 561Q1204 382 1151.5 250Q1099 118 1002 49Q905 -20 774 -20ZM684 895Q571 895 519 825.5Q467 756 465 596L465 563Q465 383 518.5 305Q572 227 688 227Q893 227 893 565Q893 730 842.5 812.5Q792 895 684 895Z" style="stroke-width: 0px; stroke-opacity: 0;"/>
      </g>
      <g transform="translate(15733.166666666668 2048) scale (1 -1)">
        <path d="M403 561Q403 395 457.5 310Q512 225 635 225Q757 225 810.5 309.5Q864 394 864 561Q864 727 810 810Q756 893 633 893Q511 893 457 810.5Q403 728 403 561ZM1176 561Q1176 288 1032 134Q888 -20 631 -20Q470 -20 347 50.5Q224 121 158 253Q92 385 92 561Q92 835 235 987Q378 1139 637 1139Q798 1139 921 1069Q1044 999 1110 868Q1176 737 1176 561Z" style="stroke-width: 0px; stroke-opacity: 0;"/>
      </g>
      <g transform="translate(17001.166666666668 2048) scale (1 -1)">
        <path d="M631 223Q711 223 823 258L823 31Q709 -20 543 -20Q360 -20 276.5 72.5Q193 165 193 350L193 889L47 889L47 1018L215 1120L303 1356L498 1356L498 1118L811 1118L811 889L498 889L498 350Q498 285 534.5 254Q571 223 631 223Z" style="stroke-width: 0px; stroke-opacity: 0;"/>
      </g>
      <g transform="translate(17890.166666666668 2048) scale (1 -1)">
        <path d="M147 1407Q147 1556 313 1556Q479 1556 479 1407Q479 1336 437.5 1296.5Q396 1257 313 1257Q147 1257 147 1407ZM465 0L160 0L160 1118L465 1118Z" style="stroke-width: 0px; stroke-opacity: 0;"/>
      </g>
      <g transform="translate(18515.166666666668 2048) scale (1 -1)">
        <path d="M778 889L514 889L514 0L209 0L209 889L41 889L41 1036L209 1118L209 1200Q209 1391 303 1479Q397 1567 604 1567Q762 1567 885 1520L807 1296Q715 1325 637 1325Q572 1325 543 1286.5Q514 1248 514 1188L514 1118L778 1118Z" style="stroke-width: 0px; stroke-opacity: 0;"/>
      </g>
      <g transform="translate(19308.166666666668 2048) scale (1 -1)">
        <path d="M0 1118L334 1118L545 489Q572 407 582 295L588 295Q599 398 631 489L838 1118L1165 1118L692 -143Q627 -318 506.5 -405Q386 -492 225 -492Q146 -492 70 -475L70 -233Q125 -246 190 -246Q271 -246 331.5 -196.5Q392 -147 426 -47L444 8Z" style="stroke-width: 0px; stroke-opacity: 0;"/>
      </g>
      <g transform="translate(21005.166666666668 2048) scale (1 -1)">
        <path d="M426 0L0 1118L319 1118L535 481Q568 377 578 252L586 252Q592 365 631 481L846 1118L1165 1118L739 0Z" style="stroke-width: 0px; stroke-opacity: 0;"/>
      </g>
      <g transform="translate(22170.166666666668 2048) scale (1 -1)">
        <path d="M147 1407Q147 1556 313 1556Q479 1556 479 1407Q479 1336 437.5 1296.5Q396 1257 313 1257Q147 1257 147 1407ZM465 0L160 0L160 1118L465 1118Z" style="stroke-width: 0px; stroke-opacity: 0;"/>
      </g>
      <g transform="translate(22795.166666666668 2048) scale (1 -1)">
        <path d="M870 0L811 152L803 152Q726 55 644.5 17.5Q563 -20 432 -20Q271 -20 178.5 72Q86 164 86 334Q86 512 210.5 596.5Q335 681 586 690L780 696L780 745Q780 915 606 915Q472 915 291 834L190 1040Q383 1141 618 1141Q843 1141 963 1043Q1083 945 1083 745L1083 0ZM780 518L662 514Q529 510 464 466Q399 422 399 332Q399 203 547 203Q653 203 716.5 264Q780 325 780 426Z" style="stroke-width: 0px; stroke-opacity: 0;"/>
      </g>
      <g transform="translate(24564.166666666668 2048) scale (1 -1)">
        <path d="M403 561Q403 395 457.5 310Q512 225 635 225Q757 225 810.5 309.5Q864 394 864 561Q864 727 810 810Q756 893 633 893Q511 893 457 810.5Q403 728 403 561ZM1176 561Q1176 288 1032 134Q888 -20 631 -20Q470 -20 347 50.5Q224 121 158 253Q92 385 92 561Q92 835 235 987Q378 1139 637 1139Q798 1139 921 1069Q1044 999 1110 868Q1176 737 1176 561Z" style="stroke-width: 0px; stroke-opacity: 0;"/>
      </g>
      <g transform="translate(25832.166666666668 2048) scale (1 -1)">
        <path d="M870 0L811 152L803 152Q726 55 644.5 17.5Q563 -20 432 -20Q271 -20 178.5 72Q86 164 86 334Q86 512 210.5 596.5Q335 681 586 690L780 696L780 745Q780 915 606 915Q472 915 291 834L190 1040Q383 1141 618 1141Q843 1141 963 1043Q1083 945 1083 745L1083 0ZM780 518L662 514Q529 510 464 466Q399 422 399 332Q399 203 547 203Q653 203 716.5 264Q780 325 780 426Z" style="stroke-width: 0px; stroke-opacity: 0;"/>
      </g>
      <g transform="translate(27069.166666666668 2048) scale (1 -1)">
        <path d="M952 0L911 143L895 143Q846 65 756 22.5Q666 -20 551 -20Q354 -20 254 85.5Q154 191 154 389L154 1118L459 1118L459 465Q459 344 502 283.5Q545 223 639 223Q767 223 824 308.5Q881 394 881 592L881 1118L1186 1118L1186 0Z" style="stroke-width: 0px; stroke-opacity: 0;"/>
      </g>
      <g transform="translate(28415.166666666668 2048) scale (1 -1)">
        <path d="M631 223Q711 223 823 258L823 31Q709 -20 543 -20Q360 -20 276.5 72.5Q193 165 193 350L193 889L47 889L47 1018L215 1120L303 1356L498 1356L498 1118L811 1118L811 889L498 889L498 350Q498 285 534.5 254Q571 223 631 223Z" style="stroke-width: 0px; stroke-opacity: 0;"/>
      </g>
      <g transform="translate(29304.166666666668 2048) scale (1 -1)">
        <path d="M1192 0L887 0L887 653Q887 895 707 895Q579 895 522 808Q465 721 465 526L465 0L160 0L160 1556L465 1556L465 1239Q465 1202 458 1065L451 975L467 975Q569 1139 791 1139Q988 1139 1090 1033Q1192 927 1192 729Z" style="stroke-width: 0px; stroke-opacity: 0;"/>
      </g>
      <g transform="translate(30650.166666666668 2048) scale (1 -1)">
        <path d="M1104 0L82 0L82 215L449 586Q612 753 662 817.5Q712 882 734 937Q756 992 756 1051Q756 1139 707.5 1182Q659 1225 578 1225Q493 1225 413 1186Q333 1147 246 1075L78 1274Q186 1366 257 1404Q328 1442 412 1462.5Q496 1483 600 1483Q737 1483 842 1433Q947 1383 1005 1293Q1063 1203 1063 1087Q1063 986 1027.5 897.5Q992 809 917.5 716Q843 623 655 451L467 274L467 260L1104 260Z" style="stroke-width: 0px; stroke-opacity: 0;"/>
      </g>
    </g>
  </g>
  <g transform="matrix(1.33, 0, 0, 1.33, -3.242962, 66.653397)">
    <rect x="0" y="0" width="96" height="30" border="1" rx="12" ry="12" style="fill: rgb(224, 224, 224); stroke: rgba(112, 112, 112, 0); stroke-opacity: 0; stroke-width: 0px;"/>
    <g transform="translate (6 6) scale(0.005859375)" style="fill:#000000;">
      <g transform="translate(34.5 2048) scale (1 -1)">
        <path d="M403 561Q403 395 457.5 310Q512 225 635 225Q757 225 810.5 309.5Q864 394 864 561Q864 727 810 810Q756 893 633 893Q511 893 457 810.5Q403 728 403 561ZM1176 561Q1176 288 1032 134Q888 -20 631 -20Q470 -20 347 50.5Q224 121 158 253Q92 385 92 561Q92 835 235 987Q378 1139 637 1139Q798 1139 921 1069Q1044 999 1110 868Q1176 737 1176 561Z" style="stroke: rgba(112, 112, 112, 0); stroke-opacity: 0; stroke-width: 0px;"/>
      </g>
      <g transform="translate(1302.5 2048) scale (1 -1)">
        <path d="M870 0L811 152L803 152Q726 55 644.5 17.5Q563 -20 432 -20Q271 -20 178.5 72Q86 164 86 334Q86 512 210.5 596.5Q335 681 586 690L780 696L780 745Q780 915 606 915Q472 915 291 834L190 1040Q383 1141 618 1141Q843 1141 963 1043Q1083 945 1083 745L1083 0ZM780 518L662 514Q529 510 464 466Q399 422 399 332Q399 203 547 203Q653 203 716.5 264Q780 325 780 426Z" style="stroke: rgba(112, 112, 112, 0); stroke-opacity: 0; stroke-width: 0px;"/>
      </g>
      <g transform="translate(2539.5 2048) scale (1 -1)">
        <path d="M952 0L911 143L895 143Q846 65 756 22.5Q666 -20 551 -20Q354 -20 254 85.5Q154 191 154 389L154 1118L459 1118L459 465Q459 344 502 283.5Q545 223 639 223Q767 223 824 308.5Q881 394 881 592L881 1118L1186 1118L1186 0Z" style="stroke: rgba(112, 112, 112, 0); stroke-opacity: 0; stroke-width: 0px;"/>
      </g>
      <g transform="translate(3885.5 2048) scale (1 -1)">
        <path d="M631 223Q711 223 823 258L823 31Q709 -20 543 -20Q360 -20 276.5 72.5Q193 165 193 350L193 889L47 889L47 1018L215 1120L303 1356L498 1356L498 1118L811 1118L811 889L498 889L498 350Q498 285 534.5 254Q571 223 631 223Z" style="stroke: rgba(112, 112, 112, 0); stroke-opacity: 0; stroke-width: 0px;"/>
      </g>
      <g transform="translate(4774.5 2048) scale (1 -1)">
        <path d="M1192 0L887 0L887 653Q887 895 707 895Q579 895 522 808Q465 721 465 526L465 0L160 0L160 1556L465 1556L465 1239Q465 1202 458 1065L451 975L467 975Q569 1139 791 1139Q988 1139 1090 1033Q1192 927 1192 729Z" style="stroke: rgba(112, 112, 112, 0); stroke-opacity: 0; stroke-width: 0px;"/>
      </g>
      <g transform="translate(6652.5 2048) scale (1 -1)">
        <path d="M784 1139Q846 1139 887 1130L864 844Q827 854 774 854Q628 854 546.5 779Q465 704 465 569L465 0L160 0L160 1118L391 1118L436 930L451 930Q503 1024 591.5 1081.5Q680 1139 784 1139Z" style="stroke: rgba(112, 112, 112, 0); stroke-opacity: 0; stroke-width: 0px;"/>
      </g>
      <g transform="translate(7582.5 2048) scale (1 -1)">
        <path d="M623 922Q526 922 471 860.5Q416 799 408 686L836 686Q834 799 777 860.5Q720 922 623 922ZM666 -20Q396 -20 244 129Q92 278 92 551Q92 832 232.5 985.5Q373 1139 621 1139Q858 1139 990 1004Q1122 869 1122 631L1122 483L401 483Q406 353 478 280Q550 207 680 207Q781 207 871 228Q961 249 1059 295L1059 59Q979 19 888 -0.5Q797 -20 666 -20Z" style="stroke: rgba(112, 112, 112, 0); stroke-opacity: 0; stroke-width: 0px;"/>
      </g>
      <g transform="translate(8792.5 2048) scale (1 -1)">
        <path d="M631 223Q711 223 823 258L823 31Q709 -20 543 -20Q360 -20 276.5 72.5Q193 165 193 350L193 889L47 889L47 1018L215 1120L303 1356L498 1356L498 1118L811 1118L811 889L498 889L498 350Q498 285 534.5 254Q571 223 631 223Z" style="stroke: rgba(112, 112, 112, 0); stroke-opacity: 0; stroke-width: 0px;"/>
      </g>
      <g transform="translate(9681.5 2048) scale (1 -1)">
        <path d="M952 0L911 143L895 143Q846 65 756 22.5Q666 -20 551 -20Q354 -20 254 85.5Q154 191 154 389L154 1118L459 1118L459 465Q459 344 502 283.5Q545 223 639 223Q767 223 824 308.5Q881 394 881 592L881 1118L1186 1118L1186 0Z" style="stroke: rgba(112, 112, 112, 0); stroke-opacity: 0; stroke-width: 0px;"/>
      </g>
      <g transform="translate(11027.5 2048) scale (1 -1)">
        <path d="M784 1139Q846 1139 887 1130L864 844Q827 854 774 854Q628 854 546.5 779Q465 704 465 569L465 0L160 0L160 1118L391 1118L436 930L451 930Q503 1024 591.5 1081.5Q680 1139 784 1139Z" style="stroke: rgba(112, 112, 112, 0); stroke-opacity: 0; stroke-width: 0px;"/>
      </g>
      <g transform="translate(11957.5 2048) scale (1 -1)">
        <path d="M1192 0L887 0L887 653Q887 774 844 834.5Q801 895 707 895Q579 895 522 809.5Q465 724 465 526L465 0L160 0L160 1118L393 1118L434 975L451 975Q502 1056 591.5 1097.5Q681 1139 795 1139Q990 1139 1091 1033.5Q1192 928 1192 729Z" style="stroke: rgba(112, 112, 112, 0); stroke-opacity: 0; stroke-width: 0px;"/>
      </g>
      <g transform="translate(13303.5 2048) scale (1 -1)">
        <path d="M940 332Q940 160 820.5 70Q701 -20 463 -20Q341 -20 255 -3.5Q169 13 94 45L94 297Q179 257 285.5 230Q392 203 473 203Q639 203 639 299Q639 335 617 357.5Q595 380 541 408.5Q487 437 397 475Q268 529 207.5 575Q147 621 119.5 680.5Q92 740 92 827Q92 976 207.5 1057.5Q323 1139 535 1139Q737 1139 928 1051L836 831Q752 867 679 890Q606 913 530 913Q395 913 395 840Q395 799 438.5 769Q482 739 629 680Q760 627 821 581Q882 535 911 475Q940 415 940 332Z" style="stroke: rgba(112, 112, 112, 0); stroke-opacity: 0; stroke-width: 0px;"/>
      </g>
    </g>
  </g>
  <g transform="matrix(1.33, 0, 0, 1.33, -141.562912, 223.553085)">
    <rect x="0" y="0" width="96" height="30" border="1" rx="12" ry="12" style="fill: rgb(224, 224, 224); stroke: rgba(112, 112, 112, 0); stroke-width: 0px; stroke-opacity: 0;"/>
    <g transform="translate (6 6) scale(0.005859375)" style="fill:#000000;">
      <g transform="translate(1 2048) scale (1 -1)">
        <path d="M494 813L594 813Q741 813 811 862Q881 911 881 1016Q881 1120 809.5 1164Q738 1208 588 1208L494 1208ZM494 561L494 0L184 0L184 1462L610 1462Q908 1462 1051 1353.5Q1194 1245 1194 1024Q1194 895 1123 794.5Q1052 694 922 637L1352 0L1008 0L659 561Z" style="stroke: rgba(112, 112, 112, 0); stroke-width: 0px; stroke-opacity: 0;"/>
      </g>
      <g transform="translate(1353 2048) scale (1 -1)">
        <path d="M623 922Q526 922 471 860.5Q416 799 408 686L836 686Q834 799 777 860.5Q720 922 623 922ZM666 -20Q396 -20 244 129Q92 278 92 551Q92 832 232.5 985.5Q373 1139 621 1139Q858 1139 990 1004Q1122 869 1122 631L1122 483L401 483Q406 353 478 280Q550 207 680 207Q781 207 871 228Q961 249 1059 295L1059 59Q979 19 888 -0.5Q797 -20 666 -20Z" style="stroke: rgba(112, 112, 112, 0); stroke-width: 0px; stroke-opacity: 0;"/>
      </g>
      <g transform="translate(2563 2048) scale (1 -1)">
        <path d="M778 889L514 889L514 0L209 0L209 889L41 889L41 1036L209 1118L209 1200Q209 1391 303 1479Q397 1567 604 1567Q762 1567 885 1520L807 1296Q715 1325 637 1325Q572 1325 543 1286.5Q514 1248 514 1188L514 1118L778 1118Z" style="stroke: rgba(112, 112, 112, 0); stroke-width: 0px; stroke-opacity: 0;"/>
      </g>
      <g transform="translate(3356 2048) scale (1 -1)">
        <path d="M784 1139Q846 1139 887 1130L864 844Q827 854 774 854Q628 854 546.5 779Q465 704 465 569L465 0L160 0L160 1118L391 1118L436 930L451 930Q503 1024 591.5 1081.5Q680 1139 784 1139Z" style="stroke: rgba(112, 112, 112, 0); stroke-width: 0px; stroke-opacity: 0;"/>
      </g>
      <g transform="translate(4286 2048) scale (1 -1)">
        <path d="M623 922Q526 922 471 860.5Q416 799 408 686L836 686Q834 799 777 860.5Q720 922 623 922ZM666 -20Q396 -20 244 129Q92 278 92 551Q92 832 232.5 985.5Q373 1139 621 1139Q858 1139 990 1004Q1122 869 1122 631L1122 483L401 483Q406 353 478 280Q550 207 680 207Q781 207 871 228Q961 249 1059 295L1059 59Q979 19 888 -0.5Q797 -20 666 -20Z" style="stroke: rgba(112, 112, 112, 0); stroke-width: 0px; stroke-opacity: 0;"/>
      </g>
      <g transform="translate(5496 2048) scale (1 -1)">
        <path d="M940 332Q940 160 820.5 70Q701 -20 463 -20Q341 -20 255 -3.5Q169 13 94 45L94 297Q179 257 285.5 230Q392 203 473 203Q639 203 639 299Q639 335 617 357.5Q595 380 541 408.5Q487 437 397 475Q268 529 207.5 575Q147 621 119.5 680.5Q92 740 92 827Q92 976 207.5 1057.5Q323 1139 535 1139Q737 1139 928 1051L836 831Q752 867 679 890Q606 913 530 913Q395 913 395 840Q395 799 438.5 769Q482 739 629 680Q760 627 821 581Q882 535 911 475Q940 415 940 332Z" style="stroke: rgba(112, 112, 112, 0); stroke-width: 0px; stroke-opacity: 0;"/>
      </g>
      <g transform="translate(6514 2048) scale (1 -1)">
        <path d="M1192 0L887 0L887 653Q887 895 707 895Q579 895 522 808Q465 721 465 526L465 0L160 0L160 1556L465 1556L465 1239Q465 1202 458 1065L451 975L467 975Q569 1139 791 1139Q988 1139 1090 1033Q1192 927 1192 729Z" style="stroke: rgba(112, 112, 112, 0); stroke-width: 0px; stroke-opacity: 0;"/>
      </g>
      <g transform="translate(8392 2048) scale (1 -1)">
        <path d="M631 223Q711 223 823 258L823 31Q709 -20 543 -20Q360 -20 276.5 72.5Q193 165 193 350L193 889L47 889L47 1018L215 1120L303 1356L498 1356L498 1118L811 1118L811 889L498 889L498 350Q498 285 534.5 254Q571 223 631 223Z" style="stroke: rgba(112, 112, 112, 0); stroke-width: 0px; stroke-opacity: 0;"/>
      </g>
      <g transform="translate(9281 2048) scale (1 -1)">
        <path d="M403 561Q403 395 457.5 310Q512 225 635 225Q757 225 810.5 309.5Q864 394 864 561Q864 727 810 810Q756 893 633 893Q511 893 457 810.5Q403 728 403 561ZM1176 561Q1176 288 1032 134Q888 -20 631 -20Q470 -20 347 50.5Q224 121 158 253Q92 385 92 561Q92 835 235 987Q378 1139 637 1139Q798 1139 921 1069Q1044 999 1110 868Q1176 737 1176 561Z" style="stroke: rgba(112, 112, 112, 0); stroke-width: 0px; stroke-opacity: 0;"/>
      </g>
      <g transform="translate(10549 2048) scale (1 -1)">
        <path d="M453 608L586 778L899 1118L1243 1118L799 633L1270 0L918 0L596 453L465 348L465 0L160 0L160 1556L465 1556L465 862L449 608Z" style="stroke: rgba(112, 112, 112, 0); stroke-width: 0px; stroke-opacity: 0;"/>
      </g>
      <g transform="translate(11819 2048) scale (1 -1)">
        <path d="M623 922Q526 922 471 860.5Q416 799 408 686L836 686Q834 799 777 860.5Q720 922 623 922ZM666 -20Q396 -20 244 129Q92 278 92 551Q92 832 232.5 985.5Q373 1139 621 1139Q858 1139 990 1004Q1122 869 1122 631L1122 483L401 483Q406 353 478 280Q550 207 680 207Q781 207 871 228Q961 249 1059 295L1059 59Q979 19 888 -0.5Q797 -20 666 -20Z" style="stroke: rgba(112, 112, 112, 0); stroke-width: 0px; stroke-opacity: 0;"/>
      </g>
      <g transform="translate(13029 2048) scale (1 -1)">
        <path d="M1192 0L887 0L887 653Q887 774 844 834.5Q801 895 707 895Q579 895 522 809.5Q465 724 465 526L465 0L160 0L160 1118L393 1118L434 975L451 975Q502 1056 591.5 1097.5Q681 1139 795 1139Q990 1139 1091 1033.5Q1192 928 1192 729Z" style="stroke: rgba(112, 112, 112, 0); stroke-width: 0px; stroke-opacity: 0;"/>
      </g>
    </g>
  </g>
  <g transform="matrix(1.33, 0, 0, 1.33, -251.952927, 363.453552)">
    <rect x="0" y="0" width="99" height="30" border="1" rx="12" ry="12" style="fill: rgb(224, 224, 224); stroke: rgba(112, 112, 112, 0); stroke-width: 0px; stroke-opacity: 0;"/>
    <g transform="translate (6 6) scale(0.005859375)" style="fill:#000000;">
      <g transform="translate(81 2048) scale (1 -1)">
        <path d="M1397 745Q1397 384 1191.5 192Q986 0 598 0L184 0L184 1462L643 1462Q1001 1462 1199 1273Q1397 1084 1397 745ZM1075 737Q1075 1208 659 1208L494 1208L494 256L627 256Q1075 256 1075 737Z" style="stroke: rgba(112, 112, 112, 0); stroke-width: 0px; stroke-opacity: 0;"/>
      </g>
      <g transform="translate(1597 2048) scale (1 -1)">
        <path d="M403 561Q403 395 457.5 310Q512 225 635 225Q757 225 810.5 309.5Q864 394 864 561Q864 727 810 810Q756 893 633 893Q511 893 457 810.5Q403 728 403 561ZM1176 561Q1176 288 1032 134Q888 -20 631 -20Q470 -20 347 50.5Q224 121 158 253Q92 385 92 561Q92 835 235 987Q378 1139 637 1139Q798 1139 921 1069Q1044 999 1110 868Q1176 737 1176 561Z" style="stroke: rgba(112, 112, 112, 0); stroke-width: 0px; stroke-opacity: 0;"/>
      </g>
      <g transform="translate(2865 2048) scale (1 -1)">
        <path d="M623 922Q526 922 471 860.5Q416 799 408 686L836 686Q834 799 777 860.5Q720 922 623 922ZM666 -20Q396 -20 244 129Q92 278 92 551Q92 832 232.5 985.5Q373 1139 621 1139Q858 1139 990 1004Q1122 869 1122 631L1122 483L401 483Q406 353 478 280Q550 207 680 207Q781 207 871 228Q961 249 1059 295L1059 59Q979 19 888 -0.5Q797 -20 666 -20Z" style="stroke: rgba(112, 112, 112, 0); stroke-width: 0px; stroke-opacity: 0;"/>
      </g>
      <g transform="translate(4075 2048) scale (1 -1)">
        <path d="M940 332Q940 160 820.5 70Q701 -20 463 -20Q341 -20 255 -3.5Q169 13 94 45L94 297Q179 257 285.5 230Q392 203 473 203Q639 203 639 299Q639 335 617 357.5Q595 380 541 408.5Q487 437 397 475Q268 529 207.5 575Q147 621 119.5 680.5Q92 740 92 827Q92 976 207.5 1057.5Q323 1139 535 1139Q737 1139 928 1051L836 831Q752 867 679 890Q606 913 530 913Q395 913 395 840Q395 799 438.5 769Q482 739 629 680Q760 627 821 581Q882 535 911 475Q940 415 940 332Z" style="stroke: rgba(112, 112, 112, 0); stroke-width: 0px; stroke-opacity: 0;"/>
      </g>
      <g transform="translate(5093 2048) scale (1 -1)">
        <path d="M1192 0L887 0L887 653Q887 774 844 834.5Q801 895 707 895Q579 895 522 809.5Q465 724 465 526L465 0L160 0L160 1118L393 1118L434 975L451 975Q502 1056 591.5 1097.5Q681 1139 795 1139Q990 1139 1091 1033.5Q1192 928 1192 729Z" style="stroke: rgba(112, 112, 112, 0); stroke-width: 0px; stroke-opacity: 0;"/>
      </g>
      <g transform="translate(6439 2048) scale (1 -1)">
        <path d="M412 1462L371 934L174 934L133 1462Z" style="stroke: rgba(112, 112, 112, 0); stroke-width: 0px; stroke-opacity: 0;"/>
      </g>
      <g transform="translate(6984 2048) scale (1 -1)">
        <path d="M631 223Q711 223 823 258L823 31Q709 -20 543 -20Q360 -20 276.5 72.5Q193 165 193 350L193 889L47 889L47 1018L215 1120L303 1356L498 1356L498 1118L811 1118L811 889L498 889L498 350Q498 285 534.5 254Q571 223 631 223Z" style="stroke: rgba(112, 112, 112, 0); stroke-width: 0px; stroke-opacity: 0;"/>
      </g>
      <g transform="translate(8405 2048) scale (1 -1)">
        <path d="M1026 0L184 0L184 1462L1026 1462L1026 1208L494 1208L494 887L989 887L989 633L494 633L494 256L1026 256Z" style="stroke: rgba(112, 112, 112, 0); stroke-width: 0px; stroke-opacity: 0;"/>
      </g>
      <g transform="translate(9552 2048) scale (1 -1)">
        <path d="M389 571L29 1118L375 1118L592 762L811 1118L1157 1118L793 571L1174 0L827 0L592 383L356 0L10 0Z" style="stroke: rgba(112, 112, 112, 0); stroke-width: 0px; stroke-opacity: 0;"/>
      </g>
      <g transform="translate(10736 2048) scale (1 -1)">
        <path d="M774 -20Q577 -20 465 123L449 123Q465 -17 465 -39L465 -492L160 -492L160 1118L408 1118L451 973L465 973Q572 1139 782 1139Q980 1139 1092 986Q1204 833 1204 561Q1204 382 1151.5 250Q1099 118 1002 49Q905 -20 774 -20ZM684 895Q571 895 519 825.5Q467 756 465 596L465 563Q465 383 518.5 305Q572 227 688 227Q893 227 893 565Q893 730 842.5 812.5Q792 895 684 895Z" style="stroke: rgba(112, 112, 112, 0); stroke-width: 0px; stroke-opacity: 0;"/>
      </g>
      <g transform="translate(12032 2048) scale (1 -1)">
        <path d="M147 1407Q147 1556 313 1556Q479 1556 479 1407Q479 1336 437.5 1296.5Q396 1257 313 1257Q147 1257 147 1407ZM465 0L160 0L160 1118L465 1118Z" style="stroke: rgba(112, 112, 112, 0); stroke-width: 0px; stroke-opacity: 0;"/>
      </g>
      <g transform="translate(12657 2048) scale (1 -1)">
        <path d="M784 1139Q846 1139 887 1130L864 844Q827 854 774 854Q628 854 546.5 779Q465 704 465 569L465 0L160 0L160 1118L391 1118L436 930L451 930Q503 1024 591.5 1081.5Q680 1139 784 1139Z" style="stroke: rgba(112, 112, 112, 0); stroke-width: 0px; stroke-opacity: 0;"/>
      </g>
      <g transform="translate(13587 2048) scale (1 -1)">
        <path d="M623 922Q526 922 471 860.5Q416 799 408 686L836 686Q834 799 777 860.5Q720 922 623 922ZM666 -20Q396 -20 244 129Q92 278 92 551Q92 832 232.5 985.5Q373 1139 621 1139Q858 1139 990 1004Q1122 869 1122 631L1122 483L401 483Q406 353 478 280Q550 207 680 207Q781 207 871 228Q961 249 1059 295L1059 59Q979 19 888 -0.5Q797 -20 666 -20Z" style="stroke: rgba(112, 112, 112, 0); stroke-width: 0px; stroke-opacity: 0;"/>
      </g>
    </g>
  </g>
  <g transform="matrix(1.33, 0, 0, 1.33, -93.682907, 363.453552)">
    <rect x="0" y="0" width="143" height="30" border="1" rx="12" ry="12" style="fill: rgb(224, 224, 224); stroke: rgba(112, 112, 112, 0); stroke-width: 0px; stroke-opacity: 0;"/>
    <g transform="translate (6 6) scale(0.005859375)" style="fill:#000000;">
      <g transform="translate(40.16666666666606 2048) scale (1 -1)">
        <path d="M1047 406Q1047 208 904.5 94Q762 -20 508 -20Q274 -20 94 68L94 356Q242 290 344.5 263Q447 236 532 236Q634 236 688.5 275Q743 314 743 391Q743 434 719 467.5Q695 501 648.5 532Q602 563 459 631Q325 694 258 752Q191 810 151 887Q111 964 111 1067Q111 1261 242.5 1372Q374 1483 606 1483Q720 1483 823.5 1456Q927 1429 1040 1380L940 1139Q823 1187 746.5 1206Q670 1225 596 1225Q508 1225 461 1184Q414 1143 414 1077Q414 1036 433 1005.5Q452 975 493.5 946.5Q535 918 690 844Q895 746 971 647.5Q1047 549 1047 406Z" style="stroke: rgba(112, 112, 112, 0); stroke-width: 0px; stroke-opacity: 0;"/>
      </g>
      <g transform="translate(1168.166666666666 2048) scale (1 -1)">
        <path d="M631 223Q711 223 823 258L823 31Q709 -20 543 -20Q360 -20 276.5 72.5Q193 165 193 350L193 889L47 889L47 1018L215 1120L303 1356L498 1356L498 1118L811 1118L811 889L498 889L498 350Q498 285 534.5 254Q571 223 631 223Z" style="stroke: rgba(112, 112, 112, 0); stroke-width: 0px; stroke-opacity: 0;"/>
      </g>
      <g transform="translate(2057.166666666666 2048) scale (1 -1)">
        <path d="M403 561Q403 395 457.5 310Q512 225 635 225Q757 225 810.5 309.5Q864 394 864 561Q864 727 810 810Q756 893 633 893Q511 893 457 810.5Q403 728 403 561ZM1176 561Q1176 288 1032 134Q888 -20 631 -20Q470 -20 347 50.5Q224 121 158 253Q92 385 92 561Q92 835 235 987Q378 1139 637 1139Q798 1139 921 1069Q1044 999 1110 868Q1176 737 1176 561Z" style="stroke: rgba(112, 112, 112, 0); stroke-width: 0px; stroke-opacity: 0;"/>
      </g>
      <g transform="translate(3325.166666666666 2048) scale (1 -1)">
        <path d="M784 1139Q846 1139 887 1130L864 844Q827 854 774 854Q628 854 546.5 779Q465 704 465 569L465 0L160 0L160 1118L391 1118L436 930L451 930Q503 1024 591.5 1081.5Q680 1139 784 1139Z" style="stroke: rgba(112, 112, 112, 0); stroke-width: 0px; stroke-opacity: 0;"/>
      </g>
      <g transform="translate(4255.166666666666 2048) scale (1 -1)">
        <path d="M623 922Q526 922 471 860.5Q416 799 408 686L836 686Q834 799 777 860.5Q720 922 623 922ZM666 -20Q396 -20 244 129Q92 278 92 551Q92 832 232.5 985.5Q373 1139 621 1139Q858 1139 990 1004Q1122 869 1122 631L1122 483L401 483Q406 353 478 280Q550 207 680 207Q781 207 871 228Q961 249 1059 295L1059 59Q979 19 888 -0.5Q797 -20 666 -20Z" style="stroke: rgba(112, 112, 112, 0); stroke-width: 0px; stroke-opacity: 0;"/>
      </g>
      <g transform="translate(5997.166666666666 2048) scale (1 -1)">
        <path d="M147 1407Q147 1556 313 1556Q479 1556 479 1407Q479 1336 437.5 1296.5Q396 1257 313 1257Q147 1257 147 1407ZM465 0L160 0L160 1118L465 1118Z" style="stroke: rgba(112, 112, 112, 0); stroke-width: 0px; stroke-opacity: 0;"/>
      </g>
      <g transform="translate(6622.166666666666 2048) scale (1 -1)">
        <path d="M1192 0L887 0L887 653Q887 774 844 834.5Q801 895 707 895Q579 895 522 809.5Q465 724 465 526L465 0L160 0L160 1118L393 1118L434 975L451 975Q502 1056 591.5 1097.5Q681 1139 795 1139Q990 1139 1091 1033.5Q1192 928 1192 729Z" style="stroke: rgba(112, 112, 112, 0); stroke-width: 0px; stroke-opacity: 0;"/>
      </g>
      <g transform="translate(8500.166666666666 2048) scale (1 -1)">
        <path d="M805 1225Q630 1225 534 1093.5Q438 962 438 727Q438 238 805 238Q959 238 1178 315L1178 55Q998 -20 776 -20Q457 -20 288 173.5Q119 367 119 729Q119 957 202 1128.5Q285 1300 440.5 1391.5Q596 1483 805 1483Q1018 1483 1233 1380L1133 1128Q1051 1167 968 1196Q885 1225 805 1225Z" style="stroke: rgba(112, 112, 112, 0); stroke-width: 0px; stroke-opacity: 0;"/>
      </g>
      <g transform="translate(9805.166666666666 2048) scale (1 -1)">
        <path d="M465 0L160 0L160 1556L465 1556Z" style="stroke: rgba(112, 112, 112, 0); stroke-width: 0px; stroke-opacity: 0;"/>
      </g>
      <g transform="translate(10430.166666666666 2048) scale (1 -1)">
        <path d="M403 561Q403 395 457.5 310Q512 225 635 225Q757 225 810.5 309.5Q864 394 864 561Q864 727 810 810Q756 893 633 893Q511 893 457 810.5Q403 728 403 561ZM1176 561Q1176 288 1032 134Q888 -20 631 -20Q470 -20 347 50.5Q224 121 158 253Q92 385 92 561Q92 835 235 987Q378 1139 637 1139Q798 1139 921 1069Q1044 999 1110 868Q1176 737 1176 561Z" style="stroke: rgba(112, 112, 112, 0); stroke-width: 0px; stroke-opacity: 0;"/>
      </g>
      <g transform="translate(11698.166666666666 2048) scale (1 -1)">
        <path d="M952 0L911 143L895 143Q846 65 756 22.5Q666 -20 551 -20Q354 -20 254 85.5Q154 191 154 389L154 1118L459 1118L459 465Q459 344 502 283.5Q545 223 639 223Q767 223 824 308.5Q881 394 881 592L881 1118L1186 1118L1186 0Z" style="stroke: rgba(112, 112, 112, 0); stroke-width: 0px; stroke-opacity: 0;"/>
      </g>
      <g transform="translate(13044.166666666666 2048) scale (1 -1)">
        <path d="M514 -20Q317 -20 204.5 133Q92 286 92 557Q92 832 206.5 985.5Q321 1139 522 1139Q733 1139 844 975L854 975Q831 1100 831 1198L831 1556L1137 1556L1137 0L903 0L844 145L831 145Q727 -20 514 -20ZM621 223Q738 223 792.5 291Q847 359 852 522L852 555Q852 735 796.5 813Q741 891 616 891Q514 891 457.5 804.5Q401 718 401 553Q401 388 458 305.5Q515 223 621 223Z" style="stroke: rgba(112, 112, 112, 0); stroke-width: 0px; stroke-opacity: 0;"/>
      </g>
      <g transform="translate(14340.166666666666 2048) scale (1 -1)">
        <path d="M778 889L514 889L514 0L209 0L209 889L41 889L41 1036L209 1118L209 1200Q209 1391 303 1479Q397 1567 604 1567Q762 1567 885 1520L807 1296Q715 1325 637 1325Q572 1325 543 1286.5Q514 1248 514 1188L514 1118L778 1118ZM1258 0L953 0L953 1556L1258 1556Z" style="stroke: rgba(112, 112, 112, 0); stroke-width: 0px; stroke-opacity: 0;"/>
      </g>
      <g transform="translate(15757.166666666666 2048) scale (1 -1)">
        <path d="M870 0L811 152L803 152Q726 55 644.5 17.5Q563 -20 432 -20Q271 -20 178.5 72Q86 164 86 334Q86 512 210.5 596.5Q335 681 586 690L780 696L780 745Q780 915 606 915Q472 915 291 834L190 1040Q383 1141 618 1141Q843 1141 963 1043Q1083 945 1083 745L1083 0ZM780 518L662 514Q529 510 464 466Q399 422 399 332Q399 203 547 203Q653 203 716.5 264Q780 325 780 426Z" style="stroke: rgba(112, 112, 112, 0); stroke-width: 0px; stroke-opacity: 0;"/>
      </g>
      <g transform="translate(16994.166666666664 2048) scale (1 -1)">
        <path d="M784 1139Q846 1139 887 1130L864 844Q827 854 774 854Q628 854 546.5 779Q465 704 465 569L465 0L160 0L160 1118L391 1118L436 930L451 930Q503 1024 591.5 1081.5Q680 1139 784 1139Z" style="stroke: rgba(112, 112, 112, 0); stroke-width: 0px; stroke-opacity: 0;"/>
      </g>
      <g transform="translate(17924.166666666664 2048) scale (1 -1)">
        <path d="M623 922Q526 922 471 860.5Q416 799 408 686L836 686Q834 799 777 860.5Q720 922 623 922ZM666 -20Q396 -20 244 129Q92 278 92 551Q92 832 232.5 985.5Q373 1139 621 1139Q858 1139 990 1004Q1122 869 1122 631L1122 483L401 483Q406 353 478 280Q550 207 680 207Q781 207 871 228Q961 249 1059 295L1059 59Q979 19 888 -0.5Q797 -20 666 -20Z" style="stroke: rgba(112, 112, 112, 0); stroke-width: 0px; stroke-opacity: 0;"/>
      </g>
      <g transform="translate(19666.166666666664 2048) scale (1 -1)">
        <path d="M1360 0L1008 0L625 616L494 522L494 0L184 0L184 1462L494 1462L494 793L616 965L1012 1462L1356 1462L846 815Z" style="stroke: rgba(112, 112, 112, 0); stroke-width: 0px; stroke-opacity: 0;"/>
      </g>
      <g transform="translate(21026.166666666664 2048) scale (1 -1)">
        <path d="M1018 1462L1331 1462L834 0L496 0L0 1462L313 1462L588 592Q611 515 635.5 412.5Q660 310 666 270Q677 362 741 592Z" style="stroke: rgba(112, 112, 112, 0); stroke-width: 0px; stroke-opacity: 0;"/>
      </g>
    </g>
  </g>
  <g transform="matrix(1.33, 0, 0, 1.33, 143.057083, 223.553085)">
    <rect x="0" y="0" width="90" height="30" border="1" rx="12" ry="12" style="fill: rgb(224, 224, 224); stroke: rgb(112, 112, 112); stroke-width: 0px; stroke-opacity: 0;"/>
    <g transform="translate (6 6) scale(0.005859375)" style="fill:#000000;">
      <g transform="translate(26 2048) scale (1 -1)">
        <path d="M1079 0L973 348L440 348L334 0L0 0L516 1468L895 1468L1413 0ZM899 608Q752 1081 733.5 1143Q715 1205 707 1241Q674 1113 518 608Z" style="stroke-width: 0px; stroke-opacity: 0;"/>
      </g>
      <g transform="translate(1439 2048) scale (1 -1)">
        <path d="M614 -20Q92 -20 92 553Q92 838 234 988.5Q376 1139 641 1139Q835 1139 989 1063L899 827Q827 856 765 874.5Q703 893 641 893Q403 893 403 555Q403 227 641 227Q729 227 804 250.5Q879 274 954 324L954 63Q880 16 804.5 -2Q729 -20 614 -20Z" style="stroke-width: 0px; stroke-opacity: 0;"/>
      </g>
      <g transform="translate(2492 2048) scale (1 -1)">
        <path d="M614 -20Q92 -20 92 553Q92 838 234 988.5Q376 1139 641 1139Q835 1139 989 1063L899 827Q827 856 765 874.5Q703 893 641 893Q403 893 403 555Q403 227 641 227Q729 227 804 250.5Q879 274 954 324L954 63Q880 16 804.5 -2Q729 -20 614 -20Z" style="stroke-width: 0px; stroke-opacity: 0;"/>
      </g>
      <g transform="translate(3545 2048) scale (1 -1)">
        <path d="M623 922Q526 922 471 860.5Q416 799 408 686L836 686Q834 799 777 860.5Q720 922 623 922ZM666 -20Q396 -20 244 129Q92 278 92 551Q92 832 232.5 985.5Q373 1139 621 1139Q858 1139 990 1004Q1122 869 1122 631L1122 483L401 483Q406 353 478 280Q550 207 680 207Q781 207 871 228Q961 249 1059 295L1059 59Q979 19 888 -0.5Q797 -20 666 -20Z" style="stroke-width: 0px; stroke-opacity: 0;"/>
      </g>
      <g transform="translate(4755 2048) scale (1 -1)">
        <path d="M940 332Q940 160 820.5 70Q701 -20 463 -20Q341 -20 255 -3.5Q169 13 94 45L94 297Q179 257 285.5 230Q392 203 473 203Q639 203 639 299Q639 335 617 357.5Q595 380 541 408.5Q487 437 397 475Q268 529 207.5 575Q147 621 119.5 680.5Q92 740 92 827Q92 976 207.5 1057.5Q323 1139 535 1139Q737 1139 928 1051L836 831Q752 867 679 890Q606 913 530 913Q395 913 395 840Q395 799 438.5 769Q482 739 629 680Q760 627 821 581Q882 535 911 475Q940 415 940 332Z" style="stroke-width: 0px; stroke-opacity: 0;"/>
      </g>
      <g transform="translate(5773 2048) scale (1 -1)">
        <path d="M940 332Q940 160 820.5 70Q701 -20 463 -20Q341 -20 255 -3.5Q169 13 94 45L94 297Q179 257 285.5 230Q392 203 473 203Q639 203 639 299Q639 335 617 357.5Q595 380 541 408.5Q487 437 397 475Q268 529 207.5 575Q147 621 119.5 680.5Q92 740 92 827Q92 976 207.5 1057.5Q323 1139 535 1139Q737 1139 928 1051L836 831Q752 867 679 890Q606 913 530 913Q395 913 395 840Q395 799 438.5 769Q482 739 629 680Q760 627 821 581Q882 535 911 475Q940 415 940 332Z" style="stroke-width: 0px; stroke-opacity: 0;"/>
      </g>
      <g transform="translate(7323 2048) scale (1 -1)">
        <path d="M631 223Q711 223 823 258L823 31Q709 -20 543 -20Q360 -20 276.5 72.5Q193 165 193 350L193 889L47 889L47 1018L215 1120L303 1356L498 1356L498 1118L811 1118L811 889L498 889L498 350Q498 285 534.5 254Q571 223 631 223Z" style="stroke-width: 0px; stroke-opacity: 0;"/>
      </g>
      <g transform="translate(8212 2048) scale (1 -1)">
        <path d="M403 561Q403 395 457.5 310Q512 225 635 225Q757 225 810.5 309.5Q864 394 864 561Q864 727 810 810Q756 893 633 893Q511 893 457 810.5Q403 728 403 561ZM1176 561Q1176 288 1032 134Q888 -20 631 -20Q470 -20 347 50.5Q224 121 158 253Q92 385 92 561Q92 835 235 987Q378 1139 637 1139Q798 1139 921 1069Q1044 999 1110 868Q1176 737 1176 561Z" style="stroke-width: 0px; stroke-opacity: 0;"/>
      </g>
      <g transform="translate(9480 2048) scale (1 -1)">
        <path d="M453 608L586 778L899 1118L1243 1118L799 633L1270 0L918 0L596 453L465 348L465 0L160 0L160 1556L465 1556L465 862L449 608Z" style="stroke-width: 0px; stroke-opacity: 0;"/>
      </g>
      <g transform="translate(10750 2048) scale (1 -1)">
        <path d="M623 922Q526 922 471 860.5Q416 799 408 686L836 686Q834 799 777 860.5Q720 922 623 922ZM666 -20Q396 -20 244 129Q92 278 92 551Q92 832 232.5 985.5Q373 1139 621 1139Q858 1139 990 1004Q1122 869 1122 631L1122 483L401 483Q406 353 478 280Q550 207 680 207Q781 207 871 228Q961 249 1059 295L1059 59Q979 19 888 -0.5Q797 -20 666 -20Z" style="stroke-width: 0px; stroke-opacity: 0;"/>
      </g>
      <g transform="translate(11960 2048) scale (1 -1)">
        <path d="M1192 0L887 0L887 653Q887 774 844 834.5Q801 895 707 895Q579 895 522 809.5Q465 724 465 526L465 0L160 0L160 1118L393 1118L434 975L451 975Q502 1056 591.5 1097.5Q681 1139 795 1139Q990 1139 1091 1033.5Q1192 928 1192 729Z" style="stroke-width: 0px; stroke-opacity: 0;"/>
      </g>
    </g>
  </g>
  <g transform="matrix(1.33, 0, 0, 1.33, 123.107063, 363.453552)">
    <rect x="0" y="0" width="120" height="30" border="1" rx="12" ry="12" style="fill: rgb(224, 224, 224); stroke: rgba(112, 112, 112, 0); stroke-width: 0px; stroke-opacity: 0;"/>
    <g transform="translate (6 6) scale(0.005859375)" style="fill:#000000;">
      <g transform="translate(1 2048) scale (1 -1)">
        <path d="M1026 0L184 0L184 1462L1026 1462L1026 1208L494 1208L494 887L989 887L989 633L494 633L494 256L1026 256Z" style="stroke: rgba(112, 112, 112, 0); stroke-width: 0px; stroke-opacity: 0;"/>
      </g>
      <g transform="translate(1148 2048) scale (1 -1)">
        <path d="M389 571L29 1118L375 1118L592 762L811 1118L1157 1118L793 571L1174 0L827 0L592 383L356 0L10 0Z" style="stroke: rgba(112, 112, 112, 0); stroke-width: 0px; stroke-opacity: 0;"/>
      </g>
      <g transform="translate(2332 2048) scale (1 -1)">
        <path d="M774 -20Q577 -20 465 123L449 123Q465 -17 465 -39L465 -492L160 -492L160 1118L408 1118L451 973L465 973Q572 1139 782 1139Q980 1139 1092 986Q1204 833 1204 561Q1204 382 1151.5 250Q1099 118 1002 49Q905 -20 774 -20ZM684 895Q571 895 519 825.5Q467 756 465 596L465 563Q465 383 518.5 305Q572 227 688 227Q893 227 893 565Q893 730 842.5 812.5Q792 895 684 895Z" style="stroke: rgba(112, 112, 112, 0); stroke-width: 0px; stroke-opacity: 0;"/>
      </g>
      <g transform="translate(3628 2048) scale (1 -1)">
        <path d="M147 1407Q147 1556 313 1556Q479 1556 479 1407Q479 1336 437.5 1296.5Q396 1257 313 1257Q147 1257 147 1407ZM465 0L160 0L160 1118L465 1118Z" style="stroke: rgba(112, 112, 112, 0); stroke-width: 0px; stroke-opacity: 0;"/>
      </g>
      <g transform="translate(4253 2048) scale (1 -1)">
        <path d="M784 1139Q846 1139 887 1130L864 844Q827 854 774 854Q628 854 546.5 779Q465 704 465 569L465 0L160 0L160 1118L391 1118L436 930L451 930Q503 1024 591.5 1081.5Q680 1139 784 1139Z" style="stroke: rgba(112, 112, 112, 0); stroke-width: 0px; stroke-opacity: 0;"/>
      </g>
      <g transform="translate(5183 2048) scale (1 -1)">
        <path d="M623 922Q526 922 471 860.5Q416 799 408 686L836 686Q834 799 777 860.5Q720 922 623 922ZM666 -20Q396 -20 244 129Q92 278 92 551Q92 832 232.5 985.5Q373 1139 621 1139Q858 1139 990 1004Q1122 869 1122 631L1122 483L401 483Q406 353 478 280Q550 207 680 207Q781 207 871 228Q961 249 1059 295L1059 59Q979 19 888 -0.5Q797 -20 666 -20Z" style="stroke: rgba(112, 112, 112, 0); stroke-width: 0px; stroke-opacity: 0;"/>
      </g>
      <g transform="translate(6393 2048) scale (1 -1)">
        <path d="M940 332Q940 160 820.5 70Q701 -20 463 -20Q341 -20 255 -3.5Q169 13 94 45L94 297Q179 257 285.5 230Q392 203 473 203Q639 203 639 299Q639 335 617 357.5Q595 380 541 408.5Q487 437 397 475Q268 529 207.5 575Q147 621 119.5 680.5Q92 740 92 827Q92 976 207.5 1057.5Q323 1139 535 1139Q737 1139 928 1051L836 831Q752 867 679 890Q606 913 530 913Q395 913 395 840Q395 799 438.5 769Q482 739 629 680Q760 627 821 581Q882 535 911 475Q940 415 940 332Z" style="stroke: rgba(112, 112, 112, 0); stroke-width: 0px; stroke-opacity: 0;"/>
      </g>
      <g transform="translate(7943 2048) scale (1 -1)">
        <path d="M147 1407Q147 1556 313 1556Q479 1556 479 1407Q479 1336 437.5 1296.5Q396 1257 313 1257Q147 1257 147 1407ZM465 0L160 0L160 1118L465 1118Z" style="stroke: rgba(112, 112, 112, 0); stroke-width: 0px; stroke-opacity: 0;"/>
      </g>
      <g transform="translate(8568 2048) scale (1 -1)">
        <path d="M1192 0L887 0L887 653Q887 774 844 834.5Q801 895 707 895Q579 895 522 809.5Q465 724 465 526L465 0L160 0L160 1118L393 1118L434 975L451 975Q502 1056 591.5 1097.5Q681 1139 795 1139Q990 1139 1091 1033.5Q1192 928 1192 729Z" style="stroke: rgba(112, 112, 112, 0); stroke-width: 0px; stroke-opacity: 0;"/>
      </g>
      <g transform="translate(10446 2048) scale (1 -1)">
        <path d="M870 0L811 152L803 152Q726 55 644.5 17.5Q563 -20 432 -20Q271 -20 178.5 72Q86 164 86 334Q86 512 210.5 596.5Q335 681 586 690L780 696L780 745Q780 915 606 915Q472 915 291 834L190 1040Q383 1141 618 1141Q843 1141 963 1043Q1083 945 1083 745L1083 0ZM780 518L662 514Q529 510 464 466Q399 422 399 332Q399 203 547 203Q653 203 716.5 264Q780 325 780 426Z" style="stroke: rgba(112, 112, 112, 0); stroke-width: 0px; stroke-opacity: 0;"/>
      </g>
      <g transform="translate(11683 2048) scale (1 -1)">
        <path d="M1192 0L887 0L887 653Q887 774 844 834.5Q801 895 707 895Q579 895 522 809.5Q465 724 465 526L465 0L160 0L160 1118L393 1118L434 975L451 975Q502 1056 591.5 1097.5Q681 1139 795 1139Q990 1139 1091 1033.5Q1192 928 1192 729Z" style="stroke: rgba(112, 112, 112, 0); stroke-width: 0px; stroke-opacity: 0;"/>
      </g>
      <g transform="translate(13561 2048) scale (1 -1)">
        <path d="M1192 0L887 0L887 653Q887 895 707 895Q579 895 522 808Q465 721 465 526L465 0L160 0L160 1556L465 1556L465 1239Q465 1202 458 1065L451 975L467 975Q569 1139 791 1139Q988 1139 1090 1033Q1192 927 1192 729Z" style="stroke: rgba(112, 112, 112, 0); stroke-width: 0px; stroke-opacity: 0;"/>
      </g>
      <g transform="translate(14907 2048) scale (1 -1)">
        <path d="M403 561Q403 395 457.5 310Q512 225 635 225Q757 225 810.5 309.5Q864 394 864 561Q864 727 810 810Q756 893 633 893Q511 893 457 810.5Q403 728 403 561ZM1176 561Q1176 288 1032 134Q888 -20 631 -20Q470 -20 347 50.5Q224 121 158 253Q92 385 92 561Q92 835 235 987Q378 1139 637 1139Q798 1139 921 1069Q1044 999 1110 868Q1176 737 1176 561Z" style="stroke: rgba(112, 112, 112, 0); stroke-width: 0px; stroke-opacity: 0;"/>
      </g>
      <g transform="translate(16175 2048) scale (1 -1)">
        <path d="M952 0L911 143L895 143Q846 65 756 22.5Q666 -20 551 -20Q354 -20 254 85.5Q154 191 154 389L154 1118L459 1118L459 465Q459 344 502 283.5Q545 223 639 223Q767 223 824 308.5Q881 394 881 592L881 1118L1186 1118L1186 0Z" style="stroke: rgba(112, 112, 112, 0); stroke-width: 0px; stroke-opacity: 0;"/>
      </g>
      <g transform="translate(17521 2048) scale (1 -1)">
        <path d="M784 1139Q846 1139 887 1130L864 844Q827 854 774 854Q628 854 546.5 779Q465 704 465 569L465 0L160 0L160 1118L391 1118L436 930L451 930Q503 1024 591.5 1081.5Q680 1139 784 1139Z" style="stroke: rgba(112, 112, 112, 0); stroke-width: 0px; stroke-opacity: 0;"/>
      </g>
    </g>
  </g>
  <rect x="-278.237" y="-89.233" width="620.883" height="526.88" style="fill: rgb(216, 216, 216); fill-opacity: 0; stroke: rgb(255, 255, 255);"/>
  <path d="M -233.37 -58.765 Q -233.37 -56.083 -234.036 -53.885 Q -234.703 -51.687 -236.06 -50.101 Q -237.416 -48.514 -239.495 -47.665 Q -241.574 -46.816 -244.415 -46.816 Q -247.255 -46.816 -249.334 -47.665 Q -251.413 -48.514 -252.77 -50.101 Q -254.127 -51.687 -254.793 -53.893 Q -255.46 -56.099 -255.46 -58.797 Q -255.46 -62.399 -254.277 -65.073 Q -253.095 -67.747 -250.635 -69.223 Q -248.176 -70.699 -244.383 -70.699 Q -240.606 -70.699 -238.17 -69.223 Q -235.734 -67.747 -234.552 -65.065 Q -233.37 -62.383 -233.37 -58.765 Z M -250.302 -58.765 Q -250.302 -56.337 -249.691 -54.584 Q -249.08 -52.83 -247.779 -51.886 Q -246.478 -50.942 -244.415 -50.942 Q -242.32 -50.942 -241.019 -51.886 Q -239.717 -52.83 -239.122 -54.584 Q -238.527 -56.337 -238.527 -58.765 Q -238.527 -62.415 -239.892 -64.51 Q -241.257 -66.604 -244.383 -66.604 Q -246.462 -66.604 -247.771 -65.66 Q -249.08 -64.716 -249.691 -62.962 Q -250.302 -61.209 -250.302 -58.765 Z" style="fill: rgb(255, 255, 255); white-space: pre;"/>
  <path d="M -214.366 -47.133 L -216.048 -52.655 L -224.507 -52.655 L -226.189 -47.133 L -231.489 -47.133 L -223.3 -70.429 L -217.286 -70.429 L -209.066 -47.133 Z M -217.223 -56.781 L -218.905 -62.177 Q -219.063 -62.716 -219.325 -63.565 Q -219.587 -64.414 -219.849 -65.295 Q -220.111 -66.176 -220.269 -66.827 Q -220.428 -66.176 -220.706 -65.216 Q -220.984 -64.256 -221.237 -63.399 Q -221.491 -62.542 -221.602 -62.177 L -223.269 -56.781 Z" style="fill: rgb(255, 255, 255); white-space: pre;"/>
  <path d="M -190.252 -64.875 L -190.252 -47.133 L -193.965 -47.133 L -194.616 -49.402 L -194.87 -49.402 Q -195.441 -48.498 -196.298 -47.926 Q -197.155 -47.355 -198.186 -47.085 Q -199.218 -46.816 -200.329 -46.816 Q -202.233 -46.816 -203.645 -47.49 Q -205.058 -48.164 -205.843 -49.593 Q -206.629 -51.021 -206.629 -53.306 L -206.629 -64.875 L -201.789 -64.875 L -201.789 -54.512 Q -201.789 -52.608 -201.106 -51.64 Q -200.424 -50.672 -198.932 -50.672 Q -197.456 -50.672 -196.615 -51.346 Q -195.774 -52.021 -195.433 -53.33 Q -195.092 -54.639 -195.092 -56.528 L -195.092 -64.875 Z" style="fill: rgb(255, 255, 255); white-space: pre;"/>
  <path d="M -177.705 -50.672 Q -176.912 -50.672 -176.158 -50.831 Q -175.404 -50.989 -174.659 -51.227 L -174.659 -47.625 Q -175.436 -47.276 -176.587 -47.046 Q -177.737 -46.816 -179.102 -46.816 Q -180.689 -46.816 -181.95 -47.331 Q -183.212 -47.847 -183.934 -49.125 Q -184.656 -50.402 -184.656 -52.687 L -184.656 -61.241 L -186.973 -61.241 L -186.973 -63.288 L -184.307 -64.906 L -182.911 -68.652 L -179.816 -68.652 L -179.816 -64.875 L -174.849 -64.875 L -174.849 -61.241 L -179.816 -61.241 L -179.816 -52.687 Q -179.816 -51.672 -179.237 -51.172 Q -178.658 -50.672 -177.705 -50.672 Z" style="fill: rgb(255, 255, 255); white-space: pre;"/>
  <path d="M -166.236 -71.825 L -166.236 -66.795 Q -166.236 -65.478 -166.324 -64.288 Q -166.411 -63.097 -166.458 -62.605 L -166.204 -62.605 Q -165.633 -63.526 -164.848 -64.097 Q -164.062 -64.668 -163.11 -64.938 Q -162.158 -65.208 -161.063 -65.208 Q -159.143 -65.208 -157.715 -64.534 Q -156.286 -63.859 -155.493 -62.423 Q -154.699 -60.987 -154.699 -58.702 L -154.699 -47.133 L -159.539 -47.133 L -159.539 -57.496 Q -159.539 -59.4 -160.238 -60.368 Q -160.936 -61.336 -162.396 -61.336 Q -163.856 -61.336 -164.697 -60.661 Q -165.538 -59.987 -165.887 -58.678 Q -166.236 -57.369 -166.236 -55.48 L -166.236 -47.133 L -171.076 -47.133 L -171.076 -71.825 Z" style="fill: rgb(255, 255, 255); white-space: pre;"/>
  <path d="M -112.401 -70.334 L -118.304 -47.133 L -123.906 -47.133 L -127.048 -59.32 Q -127.143 -59.67 -127.302 -60.384 Q -127.461 -61.098 -127.635 -61.947 Q -127.81 -62.796 -127.945 -63.55 Q -128.08 -64.303 -128.127 -64.748 Q -128.175 -64.303 -128.31 -63.558 Q -128.445 -62.812 -128.611 -61.971 Q -128.778 -61.13 -128.937 -60.4 Q -129.095 -59.67 -129.191 -59.289 L -132.317 -47.133 L -137.903 -47.133 L -143.822 -70.334 L -138.982 -70.334 L -136.014 -57.67 Q -135.887 -57.099 -135.721 -56.305 Q -135.554 -55.512 -135.387 -54.647 Q -135.221 -53.782 -135.086 -52.981 Q -134.951 -52.179 -134.888 -51.592 Q -134.808 -52.195 -134.681 -52.997 Q -134.554 -53.798 -134.404 -54.631 Q -134.253 -55.464 -134.094 -56.178 Q -133.935 -56.893 -133.809 -57.337 L -130.428 -70.334 L -125.779 -70.334 L -122.399 -57.337 Q -122.288 -56.908 -122.137 -56.186 Q -121.986 -55.464 -121.827 -54.623 Q -121.669 -53.782 -121.534 -52.981 Q -121.399 -52.179 -121.335 -51.592 Q -121.224 -52.386 -121.026 -53.52 Q -120.828 -54.655 -120.597 -55.782 Q -120.367 -56.908 -120.193 -57.67 L -117.241 -70.334 Z" style="fill: rgb(255, 255, 255); white-space: pre;"/>
  <path d="M -93.748 -56.036 Q -93.748 -53.814 -94.343 -52.1 Q -94.938 -50.386 -96.073 -49.204 Q -97.208 -48.022 -98.803 -47.419 Q -100.397 -46.816 -102.397 -46.816 Q -104.269 -46.816 -105.833 -47.419 Q -107.396 -48.022 -108.546 -49.204 Q -109.697 -50.386 -110.324 -52.1 Q -110.95 -53.814 -110.95 -56.036 Q -110.95 -58.987 -109.903 -61.034 Q -108.856 -63.081 -106.92 -64.145 Q -104.984 -65.208 -102.302 -65.208 Q -99.81 -65.208 -97.882 -64.145 Q -95.954 -63.081 -94.851 -61.034 Q -93.748 -58.987 -93.748 -56.036 Z M -106.015 -56.036 Q -106.015 -54.29 -105.634 -53.1 Q -105.253 -51.91 -104.444 -51.307 Q -103.635 -50.704 -102.333 -50.704 Q -101.048 -50.704 -100.247 -51.307 Q -99.445 -51.91 -99.072 -53.1 Q -98.699 -54.29 -98.699 -56.036 Q -98.699 -57.797 -99.072 -58.963 Q -99.445 -60.13 -100.255 -60.717 Q -101.064 -61.304 -102.365 -61.304 Q -104.285 -61.304 -105.15 -59.987 Q -106.015 -58.67 -106.015 -56.036 Z" style="fill: rgb(255, 255, 255); white-space: pre;"/>
  <path d="M -79.853 -65.208 Q -79.488 -65.208 -79.004 -65.168 Q -78.52 -65.129 -78.218 -65.065 L -78.583 -60.527 Q -78.821 -60.606 -79.258 -60.646 Q -79.694 -60.685 -80.011 -60.685 Q -80.948 -60.685 -81.828 -60.447 Q -82.709 -60.209 -83.407 -59.678 Q -84.106 -59.146 -84.51 -58.281 Q -84.915 -57.416 -84.915 -56.163 L -84.915 -47.133 L -89.755 -47.133 L -89.755 -64.875 L -86.089 -64.875 L -85.375 -61.891 L -85.137 -61.891 Q -84.614 -62.796 -83.828 -63.55 Q -83.042 -64.303 -82.035 -64.756 Q -81.027 -65.208 -79.853 -65.208 Z" style="fill: rgb(255, 255, 255); white-space: pre;"/>
  <path d="M -70.161 -71.825 L -70.161 -60.78 Q -70.161 -59.781 -70.24 -58.781 Q -70.32 -57.781 -70.415 -56.781 L -70.352 -56.781 Q -69.86 -57.48 -69.344 -58.162 Q -68.828 -58.844 -68.241 -59.479 L -63.274 -64.875 L -57.815 -64.875 L -64.861 -57.178 L -57.386 -47.133 L -62.972 -47.133 L -68.082 -54.322 L -70.161 -52.655 L -70.161 -47.133 L -75.001 -47.133 L -75.001 -71.825 Z" style="fill: rgb(255, 255, 255); white-space: pre;"/>
  <path d="M -47.538 -65.208 Q -45.078 -65.208 -43.301 -64.264 Q -41.523 -63.32 -40.555 -61.526 Q -39.587 -59.733 -39.587 -57.146 L -39.587 -54.798 L -51.029 -54.798 Q -50.95 -52.751 -49.799 -51.584 Q -48.648 -50.418 -46.601 -50.418 Q -44.903 -50.418 -43.491 -50.767 Q -42.079 -51.116 -40.587 -51.814 L -40.587 -48.069 Q -41.904 -47.419 -43.34 -47.117 Q -44.776 -46.816 -46.824 -46.816 Q -49.49 -46.816 -51.545 -47.8 Q -53.6 -48.783 -54.766 -50.799 Q -55.932 -52.814 -55.932 -55.877 Q -55.932 -58.987 -54.877 -61.058 Q -53.822 -63.129 -51.933 -64.169 Q -50.045 -65.208 -47.538 -65.208 Z M -47.506 -61.764 Q -48.918 -61.764 -49.847 -60.86 Q -50.775 -59.955 -50.918 -58.019 L -44.126 -58.019 Q -44.142 -59.098 -44.515 -59.939 Q -44.887 -60.78 -45.625 -61.272 Q -46.363 -61.764 -47.506 -61.764 Z" style="fill: rgb(255, 255, 255); white-space: pre;"/>
  <path d="M -25.755 -65.208 Q -25.39 -65.208 -24.906 -65.168 Q -24.422 -65.129 -24.12 -65.065 L -24.485 -60.527 Q -24.723 -60.606 -25.16 -60.646 Q -25.596 -60.685 -25.914 -60.685 Q -26.85 -60.685 -27.731 -60.447 Q -28.611 -60.209 -29.31 -59.678 Q -30.008 -59.146 -30.413 -58.281 Q -30.817 -57.416 -30.817 -56.163 L -30.817 -47.133 L -35.657 -47.133 L -35.657 -64.875 L -31.992 -64.875 L -31.277 -61.891 L -31.039 -61.891 Q -30.516 -62.796 -29.73 -63.55 Q -28.945 -64.303 -27.937 -64.756 Q -26.929 -65.208 -25.755 -65.208 Z" style="fill: rgb(255, 255, 255); white-space: pre;"/>
  <path d="M -7.243 -47.133 L -12.083 -47.133 L -12.083 -70.334 L 1.216 -70.334 L 1.216 -66.303 L -7.243 -66.303 L -7.243 -60.32 L 0.629 -60.32 L 0.629 -56.305 L -7.243 -56.305 Z" style="fill: rgb(255, 255, 255); white-space: pre;"/>
  <path d="M 10.208 -47.133 L 5.368 -47.133 L 5.368 -71.825 L 10.208 -71.825 Z" style="fill: rgb(255, 255, 255); white-space: pre;"/>
  <path d="M 31.406 -56.036 Q 31.406 -53.814 30.811 -52.1 Q 30.216 -50.386 29.082 -49.204 Q 27.947 -48.022 26.352 -47.419 Q 24.757 -46.816 22.758 -46.816 Q 20.885 -46.816 19.322 -47.419 Q 17.759 -48.022 16.608 -49.204 Q 15.458 -50.386 14.831 -52.1 Q 14.204 -53.814 14.204 -56.036 Q 14.204 -58.987 15.252 -61.034 Q 16.299 -63.081 18.235 -64.145 Q 20.171 -65.208 22.853 -65.208 Q 25.344 -65.208 27.273 -64.145 Q 29.201 -63.081 30.304 -61.034 Q 31.406 -58.987 31.406 -56.036 Z M 19.14 -56.036 Q 19.14 -54.29 19.52 -53.1 Q 19.901 -51.91 20.711 -51.307 Q 21.52 -50.704 22.821 -50.704 Q 24.107 -50.704 24.908 -51.307 Q 25.709 -51.91 26.082 -53.1 Q 26.455 -54.29 26.455 -56.036 Q 26.455 -57.797 26.082 -58.963 Q 25.709 -60.13 24.9 -60.717 Q 24.091 -61.304 22.79 -61.304 Q 20.869 -61.304 20.004 -59.987 Q 19.14 -58.67 19.14 -56.036 Z" style="fill: rgb(255, 255, 255); white-space: pre;"/>
  <path d="M 49.983 -47.133 L 48.619 -53.338 Q 48.507 -53.893 48.254 -54.98 Q 48 -56.067 47.706 -57.313 Q 47.413 -58.559 47.167 -59.622 Q 46.921 -60.685 46.809 -61.177 L 46.667 -61.177 Q 46.556 -60.685 46.318 -59.622 Q 46.079 -58.559 45.786 -57.305 Q 45.492 -56.051 45.238 -54.949 Q 44.985 -53.846 44.858 -53.274 L 43.429 -47.133 L 38.224 -47.133 L 33.178 -64.875 L 38.002 -64.875 L 40.049 -57.019 Q 40.256 -56.194 40.446 -55.06 Q 40.636 -53.925 40.787 -52.87 Q 40.938 -51.814 41.017 -51.195 L 41.144 -51.195 Q 41.176 -51.656 41.279 -52.417 Q 41.382 -53.179 41.517 -53.996 Q 41.652 -54.814 41.771 -55.472 Q 41.89 -56.131 41.954 -56.369 L 44.143 -64.875 L 49.475 -64.875 L 51.554 -56.369 Q 51.665 -55.909 51.848 -54.909 Q 52.03 -53.909 52.173 -52.854 Q 52.316 -51.799 52.332 -51.195 L 52.459 -51.195 Q 52.522 -51.735 52.681 -52.798 Q 52.84 -53.862 53.054 -55.028 Q 53.268 -56.194 53.49 -57.019 L 55.617 -64.875 L 60.362 -64.875 L 55.252 -47.133 Z" style="fill: rgb(255, 255, 255); white-space: pre;"/>
</svg>