<svg xmlns="http://www.w3.org/2000/svg" xmlns:xlink="http://www.w3.org/1999/xlink" width="600" height="600" xmlns:v="https://vecta.io/nano"><defs><path id="A" d="M286.211 11.746L57.333 143.827c-8.561 4.939-13.824 14.058-13.824 23.939v264.358c0 9.871 5.263 18.998 13.818 23.946l228.869 132.185c8.562 4.939 19.101 4.939 27.657 0L542.672 456.07c8.55-4.948 13.816-14.075 13.816-23.946V167.758c0-9.873-5.267-18.991-13.825-23.931L313.849 11.746a27.64 27.64 0 0 0-13.818-3.706 27.63 27.63 0 0 0-13.82 3.706"/></defs><clipPath id="B"><use xlink:href="#A"/></clipPath><linearGradient id="C" gradientUnits="userSpaceOnUse" x1="-2.083" y1="600.714" x2="3.349" y2="600.714" gradientTransform="matrix(-38.0649 77.6524 77.6524 38.0649 -46332.7227 -22594.2383)"><stop offset="0" stop-color="#41873f"/><stop offset=".329" stop-color="#418b3d"/><stop offset=".635" stop-color="#419637"/><stop offset=".932" stop-color="#3fa92d"/><stop offset="1" stop-color="#3fae2a"/></linearGradient><path clip-path="url(#B)" fill="url(#C)" d="M787.756 121.409L457.104 795.931-187.757 479.825l330.649-674.528z"/><defs><path id="D" d="M49.197 448.915a27.68 27.68 0 0 0 8.131 7.156L253.66 569.46l32.688 18.796c4.887 2.816 10.464 4.01 15.948 3.612a27.59 27.59 0 0 0 5.436-1.009l241.345-441.938a27.53 27.53 0 0 0-6.411-5.094L392.802 57.322 313.61 11.746c-2.266-1.303-4.695-2.244-7.188-2.856L49.197 448.915z"/></defs><clipPath id="E"><use xlink:href="#D"/></clipPath><linearGradient id="F" gradientUnits="userSpaceOnUse" x1="-.019" y1="599.621" x2="5.412" y2="599.621" gradientTransform="matrix(106.8073 -78.9149 -78.9149 -106.8073 47584.0977 64369.7266)"><stop offset="0" stop-color="#41873f"/><stop offset=".138" stop-color="#41873f"/><stop offset=".403" stop-color="#54a044"/><stop offset=".714" stop-color="#66b848"/><stop offset=".908" stop-color="#6cc04a"/></linearGradient><path clip-path="url(#E)" fill="url(#F)" d="M-229.625 214.898l602.181-444.925 455.347 616.289L225.72 831.184z"/><defs><path id="G" d="M286.211 11.746L57.333 143.827c-8.554 4.939-13.824 14.058-13.824 23.939v264.358a27.68 27.68 0 0 0 13.818 23.946l228.869 132.185c8.562 4.939 19.101 4.939 27.657 0L542.672 456.07c8.55-4.948 13.816-14.075 13.816-23.946V167.758c0-9.873-5.267-18.991-13.825-23.931L313.849 11.746a27.64 27.64 0 0 0-13.818-3.706 27.63 27.63 0 0 0-13.82 3.706"/></defs><clipPath id="H"><use xlink:href="#G"/></clipPath><g clip-path="url(#H)"><defs><path id="I" d="M278.578-36.806l-3.151 1.799h4.203z"/></defs><clipPath id="J"><use xlink:href="#I"/></clipPath><linearGradient id="K" gradientUnits="userSpaceOnUse" x1="32.38" y1="-36.012" x2="568.174" y2="-36.012"><stop offset="0" stop-color="#6cc04a"/><stop offset=".092" stop-color="#6cc04a"/><stop offset=".286" stop-color="#66b848"/><stop offset=".597" stop-color="#54a044"/><stop offset=".862" stop-color="#41873f"/></linearGradient><path clip-path="url(#J)" fill="url(#K)" d="M275.427-36.806h4.203v1.798h-4.203z"/></g><defs><path id="L" d="M297.253 8.189c-3.831.379-7.593 1.57-11.042 3.557L57.987 143.448 304.02 591.665c3.413-.492 6.754-1.632 9.834-3.409l228.819-132.185a27.69 27.69 0 0 0 13.354-18.891L305.182 8.645a28.6 28.6 0 0 0-5.619-.554 26.95 26.95 0 0 0-2.31.098"/></defs><clipPath id="M"><use xlink:href="#L"/></clipPath><linearGradient id="N" gradientUnits="userSpaceOnUse" x1="35.284" y1="299.786" x2="564.579" y2="299.786"><stop offset="0" stop-color="#6cc04a"/><stop offset=".092" stop-color="#6cc04a"/><stop offset=".286" stop-color="#66b848"/><stop offset=".597" stop-color="#54a044"/><stop offset=".862" stop-color="#41873f"/></linearGradient><path clip-path="url(#M)" fill="url(#N)" d="M57.987 8.091h498.04v583.574H57.987z"/><defs><path id="O" d="M286.211 11.746L57.333 143.827c-8.554 4.939-13.824 14.058-13.824 23.939v264.358a27.68 27.68 0 0 0 13.818 23.946l228.869 132.185c8.562 4.939 19.101 4.939 27.657 0L542.672 456.07c8.55-4.948 13.816-14.075 13.816-23.946V167.758c0-9.873-5.267-18.991-13.825-23.931L313.849 11.746a27.64 27.64 0 0 0-13.818-3.706 27.63 27.63 0 0 0-13.82 3.706"/></defs><clipPath id="P"><use xlink:href="#O"/></clipPath><g clip-path="url(#P)"><defs><path id="Q" d="M564.588 451.816l-1.517-2.593v3.475z"/></defs><clipPath id="R"><use xlink:href="#Q"/></clipPath><linearGradient id="S" gradientUnits="userSpaceOnUse" x1="45.035" y1="450.899" x2="564.599" y2="450.899"><stop offset="0" stop-color="#6cc04a"/><stop offset=".092" stop-color="#6cc04a"/><stop offset=".286" stop-color="#66b848"/><stop offset=".597" stop-color="#54a044"/><stop offset=".862" stop-color="#41873f"/></linearGradient><path clip-path="url(#R)" fill="url(#S)" d="M563.071 449.223h1.517v3.476h-1.517z"/></g><defs><path id="T" d="M286.211 11.746L57.333 143.827c-8.554 4.939-13.824 14.058-13.824 23.939v264.358a27.68 27.68 0 0 0 13.818 23.946l228.869 132.185c8.562 4.939 19.101 4.939 27.657 0L542.672 456.07c8.55-4.948 13.816-14.075 13.816-23.946V167.758c0-9.873-5.267-18.991-13.825-23.931L313.849 11.746a27.64 27.64 0 0 0-13.818-3.706 27.63 27.63 0 0 0-13.82 3.706"/></defs><clipPath id="U"><use xlink:href="#T"/></clipPath><g clip-path="url(#U)"><defs><path id="V" d="M543.252 456.071l-229.11 132.18c-3.152 1.818-6.59 2.96-10.109 3.438l4.561 8.312 254.479-147.303v-3.476l-6.29-10.748c-1.887 7.323-6.859 13.736-13.531 17.597"/></defs><clipPath id="W"><use xlink:href="#V"/></clipPath><linearGradient id="X" gradientUnits="userSpaceOnUse" x1="35.147" y1="519.168" x2="564.618" y2="519.168"><stop offset="0" stop-color="#6cc04a"/><stop offset=".092" stop-color="#6cc04a"/><stop offset=".286" stop-color="#66b848"/><stop offset=".597" stop-color="#54a044"/><stop offset=".862" stop-color="#41873f"/></linearGradient><path clip-path="url(#W)" fill="url(#X)" d="M304.032 438.475h259.039v161.526H304.032z"/></g><defs><path id="Y" d="M286.211 11.746L57.333 143.827c-8.554 4.939-13.824 14.058-13.824 23.939v264.358a27.68 27.68 0 0 0 13.818 23.946l228.869 132.185c8.562 4.939 19.101 4.939 27.657 0L542.672 456.07c8.55-4.948 13.816-14.075 13.816-23.946V167.758c0-9.873-5.267-18.991-13.825-23.931L313.849 11.746a27.64 27.64 0 0 0-13.818-3.706 27.63 27.63 0 0 0-13.82 3.706"/></defs><clipPath id="Z"><use xlink:href="#Y"/></clipPath><g clip-path="url(#Z)"><defs><path id="a" d="M543.252 456.071l-229.11 132.18c-3.152 1.818-6.59 2.96-10.109 3.438l4.561 8.312 254.479-147.303v-3.476l-6.29-10.748c-1.887 7.323-6.859 13.736-13.531 17.597"/></defs><clipPath id="b"><use xlink:href="#a"/></clipPath><linearGradient id="c" gradientUnits="userSpaceOnUse" x1="-2.036" y1="601.74" x2="3.393" y2="601.74" gradientTransform="matrix(-60.0806 122.5644 122.5644 60.0806 -73234.1641 -35805.9883)"><stop offset="0" stop-color="#41873f"/><stop offset=".329" stop-color="#418b3d"/><stop offset=".635" stop-color="#419637"/><stop offset=".932" stop-color="#3fa92d"/><stop offset="1" stop-color="#3fae2a"/></linearGradient><path clip-path="url(#b)" fill="url(#c)" d="M626.912 469.768L512.887 702.377l-272.693-133.67 114.025-232.612z"/></g></svg>